<?xml version="1.0" encoding="UTF-8"?>
<svg id="a" xmlns="http://www.w3.org/2000/svg" viewBox="0 0 164.37 164.37">
<path id="b" d="m82.19,0C127.58,0,164.37,36.8,164.37,82.19s-36.8,82.19-82.19,82.19S0,127.58,0,82.19C0,36.8,36.8,0,82.19,0h0Z" style="fill:#fff; isolation:isolate; stroke-width:0px;"/>
<g id="c"><line id="d" x1="79.4" y1="103.68" x2="79.4" y2="60.69" style="fill:none; stroke:#1d1d1b; stroke-linecap:round; stroke-linejoin:round;"/>
<path id="e" d="m58.37,80.77l19.6,22.26c.7.79,1.91.87,2.7.17.06-.05.12-.11.17-.17l19.6-22.26" style="fill:none; stroke:#1d1d1b; stroke-linecap:round; stroke-linejoin:round;"/>
</g>
<path d="m84.61,15.54c-.03.19-.04.3-.05.43-.08,1.12.35,2.21,2.36,2.36,1.66.12,2.53-.55,2.6-1.59.06-.85-.4-1.33-1.49-1.75l-2.15-.83c-1.39-.54-2.41-1.45-2.29-3.09.13-1.71,1.6-2.95,4.09-2.76,3.22.24,3.63,2.1,3.55,3.28-.01.18-.03.37-.07.56l-1.5-.08c.03-.17.04-.3.05-.41.07-.97-.25-1.9-2.18-2.04-1.61-.12-2.3.55-2.38,1.56-.07,1.01.62,1.41,1.51,1.75l2.14.82c1.64.62,2.42,1.57,2.31,3.12-.12,1.69-1.57,2.98-4.28,2.78-3.46-.25-3.89-2.28-3.79-3.6.01-.16.03-.35.07-.52l1.52.03Z" style="stroke-width:0px;"/>
<path d="m94.84,14.85c-.67,2.87.35,4.6,2.37,5.08,1.81.42,2.99-.27,3.36-1.86.02-.09.05-.22.05-.22l1.5.42c-.02.14-.04.25-.07.36-.55,2.35-2.56,3.18-5.16,2.57-2.98-.7-4.48-3.12-3.63-6.72.83-3.52,3.26-5.04,6.23-4.34,3.71.87,3.77,3.32,3.48,4.55-.03.12-.06.25-.11.4l-1.53-.29s.03-.12.05-.23c.38-1.6-.38-2.72-2.19-3.14-2.01-.47-3.72.65-4.37,3.43Z" style="stroke-width:0px;"/>
<path d="m107.07,12.46l3.25,1.35c2.38.99,3.28,2.67,2.46,4.64-.61,1.46-2.01,2.27-3.56,1.99l-.04.1c.37.78,1.21,4.83,1.61,5.19l-.08.19-1.63-.67c-.51-.49-1.16-4.74-1.55-5.16l-1.67-.69-1.6,3.86-1.42-.59,4.22-10.2Zm1.06,6.48c1.74.72,2.7.08,3.17-1.06.45-1.08.06-2.24-1.53-2.9l-1.77-.73-1.64,3.96,1.77.73Z" style="stroke-width:0px;"/>
<path d="m114.01,21.43c1.91-3.06,4.55-3.88,7.32-2.15,2.76,1.72,3.2,4.46,1.29,7.52-1.9,3.04-4.55,3.84-7.3,2.12-2.77-1.73-3.2-4.45-1.31-7.49Zm7.24,4.51c1.52-2.43,1.37-4.31-.61-5.55-2-1.24-3.75-.55-5.27,1.88-1.51,2.42-1.35,4.29.64,5.53,1.98,1.24,3.73.55,5.24-1.86Z" style="stroke-width:0px;"/>
<path d="m128.23,24.28l1.16,1-6.35,7.34,4.23,3.66-.87,1-5.4-4.67,7.22-8.35Z" style="stroke-width:0px;"/>
<path d="m135.54,30.93l1.02,1.15-7.27,6.44,3.71,4.19-1,.88-4.73-5.34,8.26-7.32Z" style="stroke-width:0px;"/>
<path d="m144.51,44.92l-1.81-3.09,1.15-.67,4.37,7.46-1.15.67-1.79-3.05-8.38,4.91-.77-1.31,8.38-4.91Z" style="stroke-width:0px;"/>
<path d="m144.03,52.53c3.35-1.31,5.96-.39,7.15,2.65,1.18,3.02-.1,5.48-3.45,6.8-3.34,1.31-5.94.37-7.12-2.66-1.19-3.04.09-5.48,3.42-6.78Zm3.11,7.94c2.67-1.04,3.67-2.64,2.82-4.81-.86-2.19-2.68-2.68-5.35-1.63-2.65,1.04-3.64,2.63-2.79,4.82.85,2.17,2.66,2.67,5.31,1.63Z" style="stroke-width:0px;"/>
<path d="m154.85,67.8l.2,1.49-6.11,5.6c-.47.44-1.27,1.09-1.89,1.51l.02.13c.9-.25,1.82-.41,2.37-.48l6.41-.86.21,1.52-10.94,1.47-.2-1.47,5.98-5.55c.64-.6,1.24-1.07,1.98-1.57l-.02-.14c-.67.2-1.69.41-2.5.51l-6.25.84-.21-1.52,10.94-1.47Z" style="stroke-width:0px;"/>
<path d="m156.09,83.8l-.06,1.76-11.17,3.65.05-1.55,2.88-.96.15-4.59-2.81-1.12.05-1.55,10.9,4.37Zm-7.05,2.57l3.54-1.13c.57-.19,1.13-.35,2.02-.54v-.11c-.85-.24-1.38-.43-1.94-.66l-3.49-1.38-.13,3.82Z" style="stroke-width:0px;"/>
<path d="m155.8,90.54l-.29,1.59-6.87,1.04c-1.07.17-2.02.29-3.1.35l-.03.16c1.03.44,1.85.85,2.79,1.38l6.07,3.38-.28,1.58-10.17-5.82.31-1.75,11.56-1.91Z" style="stroke-width:0px;"/>
<path d="m153.27,102.53l-.44,1.47-10.58-3.15.44-1.47,10.58,3.15Z" style="stroke-width:0px;"/>
<path d="m142.16,111.71l1.05-2.42,1.12.48-1.64,3.77-4.67-2.02.45-1.04,1.4.38.04-.09c-.52-.82-.83-2.1-.18-3.62,1.18-2.73,3.83-3.78,7.23-2.31,3.29,1.42,4.38,4.1,3.17,6.9-1.5,3.45-3.77,3.22-5,2.68-.16-.07-.3-.15-.41-.23l.54-1.46s.14.08.21.11c1.51.66,2.71.06,3.43-1.6.83-1.92.02-3.79-2.59-4.92-2.7-1.17-4.64-.48-5.47,1.45-.76,1.76-.09,3.31,1.31,3.93Z" style="stroke-width:0px;"/>
<path d="m144.74,121.6l-.96,1.48-11.45-2.63.84-1.3,2.96.66,2.5-3.85-1.83-2.41.84-1.3,7.09,9.36Zm-7.36-1.43l3.62.86c.58.13,1.15.29,2.01.58l.06-.09c-.61-.64-.96-1.08-1.33-1.57l-2.28-2.98-2.08,3.21Z" style="stroke-width:0px;"/>
<path d="m137.77,128.89l2.33-2.72,1.01.87-5.63,6.56-1.01-.87,2.3-2.68-7.37-6.33.99-1.15,7.37,6.33Z" style="stroke-width:0px;"/>
<path d="m133.48,135.51l-5.44,4.78-.87-.99,4.29-3.77-2.29-2.61-3.72,3.27-.88-1,3.72-3.27-2.38-2.7-4.29,3.77-.88-1,5.44-4.78,7.29,8.29Z" style="stroke-width:0px;"/>
<path d="m103.42,146.29c.27.88-.21,1.74-1.15,2.02-.94.28-1.81-.16-2.08-1.04-.27-.88.22-1.72,1.15-2.01.94-.28,1.81.15,2.08,1.03Z" style="stroke-width:0px;"/>
<path d="m75.91,148.59c.04-.19.06-.3.07-.43.15-1.11-.22-2.22-2.22-2.49-1.65-.22-2.56.41-2.69,1.44-.11.84.32,1.35,1.39,1.83l2.1.96c1.36.61,2.33,1.58,2.11,3.22-.22,1.7-1.76,2.85-4.24,2.53-3.21-.42-3.51-2.3-3.35-3.48.02-.17.05-.37.1-.55l1.5.17c-.04.17-.06.3-.07.41-.13.97.14,1.91,2.06,2.16,1.6.21,2.33-.42,2.46-1.42.13-1-.54-1.44-1.41-1.83l-2.09-.94c-1.6-.71-2.33-1.71-2.12-3.25.22-1.68,1.74-2.89,4.43-2.53,3.44.45,3.76,2.5,3.58,3.81-.02.16-.05.35-.1.52l-1.52-.12Z" style="stroke-width:0px;"/>
<path d="m65.65,148.68c.84-2.82-.08-4.61-2.07-5.21-1.78-.53-3,.09-3.46,1.66-.03.09-.06.21-.06.21l-1.47-.5c.03-.14.06-.25.09-.36.69-2.32,2.74-3.03,5.3-2.26,2.93.87,4.29,3.38,3.23,6.92-1.03,3.47-3.54,4.84-6.47,3.97-3.65-1.09-3.57-3.53-3.21-4.75.04-.12.07-.25.13-.39l1.51.38s-.04.12-.07.23c-.47,1.58.22,2.74,2,3.27,1.98.59,3.75-.44,4.56-3.17Z" style="stroke-width:0px;"/>
<path d="m53.31,150.35l-3.17-1.53c-2.32-1.12-3.11-2.86-2.19-4.78.69-1.43,2.14-2.15,3.67-1.78l.05-.1c-.33-.8-.92-4.89-1.31-5.27l.09-.19,1.58.77c.48.52.88,4.8,1.25,5.25l1.63.79,1.82-3.76,1.38.67-4.81,9.94Zm-.68-6.53c-1.7-.82-2.69-.24-3.23.87-.51,1.05-.19,2.24,1.36,2.99l1.73.84,1.87-3.86-1.73-.84Z" style="stroke-width:0px;"/>
<path d="m46.91,141c-2.08,2.94-4.76,3.61-7.43,1.72-2.65-1.87-2.93-4.64-.85-7.58,2.07-2.93,4.76-3.57,7.41-1.7,2.66,1.88,2.94,4.62.87,7.55Zm-6.96-4.92c-1.65,2.34-1.62,4.22.29,5.57,1.92,1.36,3.71.76,5.36-1.58,1.64-2.33,1.6-4.2-.32-5.56-1.91-1.35-3.69-.77-5.33,1.56Z" style="stroke-width:0px;"/>
<path d="m32.87,137.32l-1.1-1.07,6.76-6.97-4.02-3.9.92-.95,5.12,4.97-7.69,7.92Z" style="stroke-width:0px;"/>
<path d="m25.97,130.28l-.95-1.21,7.62-6.01-3.47-4.4,1.04-.82,4.42,5.6-8.67,6.83Z" style="stroke-width:0px;"/>
<path d="m17.81,115.76l1.63,3.19-1.18.6-3.92-7.7,1.18-.6,1.6,3.15,8.65-4.41.69,1.35-8.65,4.41Z" style="stroke-width:0px;"/><path d="m18.73,108.22c-3.42,1.12-5.98.05-6.99-3.06-1.01-3.09.42-5.47,3.84-6.59,3.41-1.11,5.95-.02,6.96,3.07,1.01,3.1-.41,5.47-3.81,6.58Zm-2.64-8.11c-2.72.89-3.82,2.42-3.1,4.64.73,2.24,2.52,2.83,5.24,1.94,2.71-.88,3.79-2.41,3.06-4.65-.72-2.22-2.5-2.82-5.21-1.94Z" style="stroke-width:0px;"/>
<path d="m8.81,92.31l-.11-1.5,6.43-5.24c.5-.41,1.34-1.02,1.98-1.4v-.13c-.93.2-1.85.3-2.41.34l-6.45.49-.12-1.53,11.01-.83.11,1.48-6.3,5.2c-.68.57-1.31,1-2.07,1.46v.14c.69-.16,1.72-.31,2.54-.37l6.29-.47.12,1.53-11.01.83Z" style="stroke-width:0px;"/>
<path d="m8.49,76.3l.16-1.75,11.36-3-.14,1.54-2.93.79-.42,4.57,2.74,1.28-.14,1.54-10.63-4.98Zm7.18-2.16l-3.6.93c-.58.16-1.15.28-2.05.42v.11c.83.29,1.34.51,1.9.77l3.41,1.58.35-3.81Z" style="stroke-width:0px;"/>
<path d="m9.17,69.57l.38-1.57,6.92-.64c1.08-.1,2.03-.17,3.12-.17l.04-.16c-1-.5-1.79-.96-2.71-1.54l-5.87-3.73.37-1.56,9.82,6.41-.42,1.73-11.66,1.23Z" style="stroke-width:0px;"/>
<path d="m12.4,57.75l.52-1.44,10.38,3.76-.52,1.44-10.38-3.76Z" style="stroke-width:0px;"/>
<path d="m24.03,49.24l-1.19,2.36-1.09-.55,1.85-3.67,4.54,2.29-.51,1.01-1.38-.46-.04.09c.47.85.71,2.15-.03,3.62-1.34,2.66-4.05,3.55-7.35,1.89-3.2-1.61-4.13-4.34-2.76-7.07,1.69-3.36,3.94-2.99,5.14-2.39.16.08.29.17.39.25l-.63,1.42s-.14-.09-.21-.12c-1.47-.74-2.7-.22-3.52,1.4-.94,1.87-.24,3.78,2.3,5.06,2.63,1.33,4.6.75,5.55-1.13.86-1.71.28-3.3-1.08-4Z" style="stroke-width:0px;"/>
<path d="m22.02,39.22l1.04-1.42,11.28,3.29-.92,1.25-2.92-.83-2.72,3.71,1.69,2.51-.92,1.25-6.54-9.75Zm7.27,1.86l-3.56-1.06c-.57-.16-1.13-.35-1.97-.69l-.07.09c.57.68.9,1.13,1.24,1.64l2.11,3.11,2.26-3.09Z" style="stroke-width:0px;"/>
<path d="m29.39,32.36l-2.49,2.58-.96-.92,6-6.22.96.92-2.46,2.55,6.99,6.74-1.06,1.09-6.99-6.74Z" style="stroke-width:0px;"/>
<path d="m34.06,25.97l5.71-4.47.81,1.03-4.5,3.52,2.14,2.73,3.91-3.06.82,1.05-3.91,3.06,2.22,2.84,4.5-3.52.82,1.05-5.71,4.47-6.8-8.7Z" style="stroke-width:0px;"/>
<path d="m61.25,17.99c-.26-.88.22-1.74,1.16-2.02.94-.28,1.81.17,2.07,1.05.26.88-.22,1.72-1.16,2-.94.28-1.81-.16-2.07-1.04Z" style="stroke-width:0px;"/>
</svg>